<svg viewBox="0 0 1024 1024" xmlns="http://www.w3.org/2000/svg">
  <rect width="1024" height="1024" rx="213" fill="#6E8467"/>
  <path d="M512 171 L853 512 L512 853 L171 512 Z" fill="none" stroke="#FFFFFF" stroke-width="96" stroke-linejoin="round"/>
  <g transform="translate(434,548) rotate(-8) scale(1.1)">
    <path d="M-48 -28 C -48 -78, 48 -78, 48 -24 C 48 10, 32 32, 26 56 C 20 82, -20 86, -28 60 C -36 34, -48 8, -48 -28 Z" fill="#FFF3E8"/>
    <circle cx="-40" cy="-76" r="20.5" fill="#FFF3E8"/>
    <circle cx="-14" cy="-90" r="17" fill="#FFF3E8"/>
    <circle cx="10" cy="-93" r="15" fill="#FFF3E8"/>
    <circle cx="32" cy="-87" r="13" fill="#FFF3E8"/>
    <circle cx="49" cy="-75" r="11" fill="#FFF3E8"/>
  </g>
  <g transform="translate(590,548) rotate(8) scale(-1.1,1.1)">
    <path d="M-48 -28 C -48 -78, 48 -78, 48 -24 C 48 10, 32 32, 26 56 C 20 82, -20 86, -28 60 C -36 34, -48 8, -48 -28 Z" fill="#FFF3E8"/>
    <circle cx="-40" cy="-76" r="20.5" fill="#FFF3E8"/>
    <circle cx="-14" cy="-90" r="17" fill="#FFF3E8"/>
    <circle cx="10" cy="-93" r="15" fill="#FFF3E8"/>
    <circle cx="32" cy="-87" r="13" fill="#FFF3E8"/>
    <circle cx="49" cy="-75" r="11" fill="#FFF3E8"/>
  </g>
</svg>
